<?xml version="1.0"?>
<svg xmlns="http://www.w3.org/2000/svg" viewBox="0 0 50 50">
    <path fill="#fff" d="M 7 9 C 4.2504839 9 2 11.250484 2 14 L 2 36 C 2 38.749516 4.2504839 41 7 41 L 43 41 C 45.749516 41 48 38.749516 48 36 L 48 14 C 48 11.250484 45.749516 9 43 9 L 7 9 z M 7 11 L 43 11 C 44.668484 11 46 12.331516 46 14 L 46 36 C 46 37.668484 44.668484 39 43 39 L 7 39 C 5.3315161 39 4 37.668484 4 36 L 4 14 C 4 12.331516 5.3315161 11 7 11 z M 23 12 C 22.448 12 22 12.448 22 13 C 22 13.552 22.448 14 23 14 C 23.552 14 24 13.552 24 13 C 24 12.448 23.552 12 23 12 z M 13.4375 14 C 10.8985 14 9.9525 15.97625 10.6875 17.65625 C 10.5945 17.71425 10.462 17.88975 10.5 18.21875 C 10.572 18.83275 10.81375 18.987 10.96875 19 C 11.02875 19.573 11.39575 20.269 11.59375 20.375 C 11.59375 20.784 11.6025 21.08325 11.5625 21.53125 C 11.0895 22.84025 8.148 22.478 8 25 L 18 25 C 17.852 22.478 14.69375 22.83925 14.21875 21.53125 C 14.17975 21.08325 14.1875 20.784 14.1875 20.375 C 14.3855 20.268 14.7525 19.573 14.8125 19 C 14.9685 18.987 15.20925 18.83175 15.28125 18.21875 C 15.32025 17.88875 15.1885 17.69225 15.0625 17.65625 C 15.5305 17.04425 15.4545 14.5625 13.6875 14.5625 L 13.4375 14 z M 23 15 C 22.448 15 22 15.448 22 16 C 22 16.552 22.448 17 23 17 C 23.552 17 24 16.552 24 16 C 24 15.448 23.552 15 23 15 z M 23 18 C 22.448 18 22 18.448 22 19 C 22 19.552 22.448 20 23 20 C 23.552 20 24 19.552 24 19 C 24 18.448 23.552 18 23 18 z M 27.8125 18 A 1.001098 1.001098 0 0 0 28 20 L 41 20 A 1.0001 1.0001 0 1 0 41 18 L 28 18 A 1.0001 1.0001 0 0 0 27.90625 18 A 1.001098 1.001098 0 0 0 27.8125 18 z M 23 21 C 22.448 21 22 21.448 22 22 C 22 22.552 22.448 23 23 23 C 23.552 23 24 22.552 24 22 C 24 21.448 23.552 21 23 21 z M 27.8125 22 A 1.001098 1.001098 0 0 0 28 24 L 38 24 A 1.0001 1.0001 0 1 0 38 22 L 28 22 A 1.0001 1.0001 0 0 0 27.90625 22 A 1.001098 1.001098 0 0 0 27.8125 22 z M 23 24 C 22.448 24 22 24.448 22 25 C 22 25.552 22.448 26 23 26 C 23.552 26 24 25.552 24 25 C 24 24.448 23.552 24 23 24 z M 27.8125 26 A 1.001098 1.001098 0 0 0 28 28 L 41 28 A 1.0001 1.0001 0 1 0 41 26 L 28 26 A 1.0001 1.0001 0 0 0 27.90625 26 A 1.001098 1.001098 0 0 0 27.8125 26 z M 10.71875 27 C 9.8623826 27 9.0830597 27.561331 8.8125 28.375 L 8.0625 30.6875 L 8 30.84375 L 8 31 L 8 32 L 8 35 L 8 35.5 C 8 35.776 8.224 36 8.5 36 L 9.5 36 C 9.776 36 10 35.776 10 35.5 L 10 35 L 16 35 L 16 35.5 C 16 35.776 16.224 36 16.5 36 L 17.5 36 C 17.776 36 18 35.776 18 35.5 L 18 34 L 18 32 L 18 31 L 18 30.84375 L 17.9375 30.6875 L 17.1875 28.375 C 16.916477 27.559939 16.137607 27 15.28125 27 L 10.71875 27 z M 23 27 C 22.448 27 22 27.448 22 28 C 22 28.552 22.448 29 23 29 C 23.552 29 24 28.552 24 28 C 24 27.448 23.552 27 23 27 z M 10.71875 29 L 15.28125 29 L 15.96875 31 L 10.03125 31 L 10.71875 29 z M 23 30 C 22.448 30 22 30.448 22 31 C 22 31.552 22.448 32 23 32 C 23.552 32 24 31.552 24 31 C 24 30.448 23.552 30 23 30 z M 27.8125 30 A 1.001098 1.001098 0 0 0 28 32 L 38 32 A 1.0001 1.0001 0 1 0 38 30 L 28 30 A 1.0001 1.0001 0 0 0 27.90625 30 A 1.001098 1.001098 0 0 0 27.8125 30 z M 10 32 C 10.552 32 11 32.448 11 33 C 11 33.552 10.552 34 10 34 C 9.448 34 9 33.552 9 33 C 9 32.448 9.448 32 10 32 z M 16 32 C 16.552 32 17 32.448 17 33 C 17 33.552 16.552 34 16 34 C 15.448 34 15 33.552 15 33 C 15 32.448 15.448 32 16 32 z M 23 33 C 22.448 33 22 33.448 22 34 C 22 34.552 22.448 35 23 35 C 23.552 35 24 34.552 24 34 C 24 33.448 23.552 33 23 33 z M 23 36 C 22.448 36 22 36.448 22 37 C 22 37.552 22.448 38 23 38 C 23.552 38 24 37.552 24 37 C 24 36.448 23.552 36 23 36 z"/>
</svg>
