<svg xmlns="http://www.w3.org/2000/svg" viewBox="0 0 155 384"><defs><style>.cls-1{fill:#fff;}.cls-2{fill:#4d4d4d;}.cls-3,.cls-4,.cls-5{fill:#28285b;}.cls-4{opacity:0.2;}.cls-5{fill-opacity:0.22;opacity:0.4;}</style></defs><title>Asset 2</title><g id="Layer_2" data-name="Layer 2"><g id="Layer_1-2" data-name="Layer 1"><path class="cls-1" d="M0,68H155a0,0,0,0,1,0,0V306.5A77.5,77.5,0,0,1,77.5,384h0A77.5,77.5,0,0,1,0,306.5V68A0,0,0,0,1,0,68Z"/><path class="cls-2" d="M150,73V306.5a72.5,72.5,0,0,1-145,0V73H150m5-5H0V306.5A77.5,77.5,0,0,0,77.5,384h0A77.5,77.5,0,0,0,155,306.5V68Z"/><rect class="cls-1" x="35.5" width="84" height="73"/><path class="cls-2" d="M114.5,5V68h-74V5h74m5-5h-84V73h84V0Z"/><rect class="cls-1" x="49.87" y="26" width="17.26" height="15"/><path class="cls-2" d="M62.13,31v5H54.87V31h7.26m5-5H49.87V41H67.13V26Z"/><rect class="cls-1" x="87.87" y="26" width="17.26" height="15"/><path class="cls-2" d="M100.13,31v5H92.87V31h7.26m5-5H87.87V41h17.26V26Z"/><g id="Ether"><g id="LINES"><path class="cls-3" d="M77.29,123.51l-45.21,71a.25.25,0,0,0,.08.34.24.24,0,0,0,.34-.08l45.21-71a.25.25,0,0,0-.42-.26Z"/><path class="cls-3" d="M77.29,123.77l45.21,71a.24.24,0,0,0,.34.08.25.25,0,0,0,.07-.34l-45.2-71a.25.25,0,0,0-.42.26Z"/><path class="cls-3" d="M32.17,194.89l45.21,25.83a.25.25,0,0,0,.24-.43h0L32.42,194.47a.25.25,0,1,0-.24.43Z"/><path class="cls-3" d="M77.62,220.72l45.2-25.83a.25.25,0,1,0-.24-.43L77.38,220.3a.25.25,0,1,0,.24.43Z"/><path class="cls-3" d="M77.62,226.47l45.2-25.84a.25.25,0,1,0-.24-.43L77.38,226a.25.25,0,0,0-.09.33.25.25,0,0,0,.34.09Z"/><path class="cls-3" d="M77.62,226,32.42,200.21a.25.25,0,1,0-.24.43l45.21,25.84a.25.25,0,0,0,.33-.09A.24.24,0,0,0,77.62,226Z"/><path class="cls-3" d="M32.09,200.56,77.3,263a.25.25,0,1,0,.4-.29h0L32.49,200.28a.25.25,0,1,0-.4.29Z"/><path class="cls-3" d="M77.7,263l45.21-62.43a.25.25,0,1,0-.4-.29h0L77.3,262.71a.25.25,0,1,0,.4.29Z"/></g><path class="cls-1" d="M30.49,194.79s0,.06.06.09,0,.05,0,.07h0l46.76,26.72h.25l46.76-26.72h0s0-.06.06-.09,0,0,0-.06a.25.25,0,0,0,0-.1s0-.06,0-.09h0L77.72,121.1s0,0,0,0,0,0,0,0h0l-.09,0-.09,0h0s0,0,0,0,0,0,0,0L30.52,194.59h0s0,0,0,.07A.25.25,0,0,0,30.49,194.79Z"/><path class="cls-2" d="M77.5,130.08l40.09,63L77.5,216,37.41,193.08l40.09-63m0-9.08h0l-.09,0h0s0,0,0,0,0,0,0,0L30.52,194.59h0s0,0,0,.07a.25.25,0,0,0,0,.12s0,.06.06.09,0,.05,0,.07h0l46.76,26.72h.25l46.76-26.72h0s0-.06.06-.09,0,0,0-.06a.25.25,0,0,0,0-.1s0-.06,0-.09h0L77.72,121.1s0,0,0,0,0,0,0,0h0l-.09,0Z"/><path class="cls-1" d="M124.5,198.28a.22.22,0,0,0,0-.1s0,0,0,0l0,0s0,0,0,0h0l-.09,0h-.14L77.5,224.7,30.86,198h-.14l-.09,0h0s0,0,0,0l0,0s0,0,0,0a.27.27,0,0,0,0,.18s0,0,0,0L77.3,263l0,0s0,0,0,0h.06l.09,0,.09,0h.06s0,0,0,0l0,0,46.76-64.58s0,0,0,0A.22.22,0,0,0,124.5,198.28Z"/><path class="cls-2" d="M47.49,213.3,75,229l2.48,1.42L80,229l27.53-15.74-30,41.45-30-41.45M124.26,198h-.12L77.5,224.7,30.86,198h-.14l-.09,0h0s0,0,0,0l0,0s0,0,0,0a.26.26,0,0,0,0,.18s0,0,0,0L77.3,263l0,0s0,0,0,0h.06l.09,0,.09,0h.06s0,0,0,0l0,0,46.76-64.58s0,0,0,0a.22.22,0,0,0,0-.09.22.22,0,0,0,0-.1s0,0,0,0l0,0s0,0,0,0h0l-.09,0Z"/><g id="FACES"><polygon class="cls-4" points="77.5 125 77.5 219.14 121 194.34 77.5 125"/><polygon class="cls-4" points="77.53 227.38 77.5 261.43 120.07 202.81 77.53 227.38"/><polygon class="cls-5" points="33.94 194.34 77.5 219.14 121 194.34 77.5 175.22 33.94 194.34"/></g></g></g></g></svg>