<?xml version="1.0" encoding="utf-8"?>
<!-- Svg Vector Icons : http://www.onlinewebfonts.com/icon -->
<!DOCTYPE svg PUBLIC "-//W3C//DTD SVG 1.1//EN" "http://www.w3.org/Graphics/SVG/1.1/DTD/svg11.dtd">
<svg version="1.1" xmlns="http://www.w3.org/2000/svg" xmlns:xlink="http://www.w3.org/1999/xlink" x="0px" y="0px" viewBox="0 0 1000 1000" enable-background="new 0 0 1000 1000" xml:space="preserve">
<metadata> Svg Vector Icons : http://www.onlinewebfonts.com/icon </metadata>
<g fill="#fff"><g transform="translate(0.000000,375.000000) scale(0.100000,-0.100000)"><path d="M624.4,2311.6c-206.8-65.1-373.4-210.6-463.4-404.1l-53.6-114.9l-5.7-3006.5C97.7-4490.3,92-4323.7,203.1-4496.1c70.9-113,203-226,325.5-283.4l114.9-53.6H5000h4356.5l114.9,53.6c151.3,70.9,298.7,218.3,367.7,365.8l53.6,116.8l5.7,3006.5c3.8,3276.5,9.6,3109.9-101.5,3282.2c-70.9,113-203,226-325.5,283.4l-114.9,53.6l-4327.8,3.8C1570.3,2334.5,685.6,2330.7,624.4,2311.6z M9360.3,1984.1c95.8-40.2,137.9-80.4,180-172.3c34.5-72.8,36.4-206.8,36.4-3060.1c0-2640.7-3.8-2991.1-28.7-3052.4c-40.2-95.8-80.4-137.9-172.3-180c-72.8-34.5-245.1-36.4-4375.7-36.4c-4130.5,0-4302.9,1.9-4375.6,36.4c-91.9,42.1-132.1,84.3-172.3,180c-24.9,61.3-28.7,411.7-28.7,3048.6c0,2636.9,3.8,2987.3,28.7,3048.6c40.2,95.7,80.4,137.9,172.3,180c72.8,34.5,245.1,36.4,4371.8,36.4C8818.4,2012.8,9299.1,2009,9360.3,1984.1z"/><path d="M1511,997.9c-90-70.9-101.5-132.1-65.1-350.4l34.5-197.2l-76.6-180c-42.1-99.6-91.9-250.9-109.2-335.1c-21.1-99.6-49.8-170.4-76.6-201.1c-86.2-93.8-130.2-208.7-139.8-363.8c-13.4-218.3,28.7-340.8,157-471.1c55.5-55.5,116.8-137.9,134-183.8c88.1-220.2,275.8-459.6,444.3-564.9c46-28.7,84.3-67,84.3-82.3c0-19.2-122.5-90-335.1-197.2c-386.8-191.5-478.7-264.3-570.6-450c-55.5-114.9-61.3-145.5-67-335.1c-7.7-245.1-1.9-277.7,67-346.6c193.4-193.4,630-268.1,1556.8-268.1c947.9,0,1378.8,76.6,1562.6,279.6l68.9,76.6l-7.7,224c-5.7,206.8-9.6,231.7-67,348.5c-95.8,193.4-199.2,275.8-578.3,465.3c-354.3,178.1-379.2,203-264.3,270c166.6,97.7,377.2,358.1,453.8,561.1c23,59.4,74.7,134,141.7,201.1c82.4,82.3,111.1,128.3,137.9,214.5c63.2,218.3,13.4,478.7-116.8,622.4c-23,26.8-61.3,113-86.2,191.5c-109.2,373.4-360,610.9-766,727.7c-113,32.6-222.1,44-517,55.5C2162.1,720.3,2129.5,726,2028,772c-61.3,28.7-153.2,90-204.9,139.8c-82.4,76.6-174.3,124.5-243.2,124.5C1568.4,1036.2,1535.9,1019,1511,997.9z M2064.4,421.5c111.1-26.8,210.6-36.4,421.3-36.4c681.7,0,944.1-178.1,1030.2-695.1c7.7-53.6,36.4-97.7,97.7-157c80.4-80.4,84.3-86.2,84.3-197.2c0-153.2-24.9-210.6-101.5-243.2c-78.5-32.6-122.6-80.4-137.9-153.2c-28.7-116.8-145.5-335.1-227.9-415.5c-46-46-134-111.1-197.2-145.5c-134-70.9-158.9-114.9-158.9-281.5c0-241.3,44-289.2,469.2-501.7c180-90,348.5-180,379.2-201.1c90-63.2,128.3-166.6,128.3-337v-151.3l-185.8-32.6c-367.7-63.2-540-74.7-1106.8-74.7c-568.7,0-779.4,13.4-1133.6,76.6l-178.1,30.6v151.3c0,168.5,26.8,248.9,107.2,325.5c30.6,28.7,206.8,124.5,390.6,214.5c434.7,208.7,478.7,256.6,478.7,499.8c0,168.5-24.9,212.5-155.1,277.7c-193.4,99.6-360,312.1-419.4,536.2c-23,90-84.3,172.3-128.3,172.3c-15.3,0-47.9,21.1-72.8,47.9c-42.1,40.2-47.9,63.2-47.9,181.9c0,137.9,0,137.9,84.3,220.2c70.8,67,88.1,97.7,97.7,174.3c23,160.9,65.1,310.2,137.9,473c38.3,86.2,72.8,197.2,78.5,247l7.7,90l57.5-28.7C1894,473.2,1984,442.6,2064.4,421.5z"/><path d="M4902.3,187.9c-88.1-67-95.8-168.5-19.2-245.1l55.5-55.5h875.1H6689l55.5,55.5c70.8,72.8,74.7,157,7.7,222.1l-46,47.9h-886.6C5153.2,210.9,4925.3,205.1,4902.3,187.9z"/><path d="M7165.8,163c-57.5-72.8-53.6-170.4,9.6-227.9c44.1-42.1,68.9-47.9,189.6-47.9c109.1,0,149.3,7.7,187.6,38.3c86.2,68.9,84.3,195.3-3.8,262.4c-19.2,13.4-93.8,23-187.7,24.9C7215.6,212.8,7202.2,209,7165.8,163z"/><path d="M4877.5-823.2c-65.1-76.6-63.2-141.7,5.7-210.6l55.5-55.5h1861.3h1859.4l46,47.9c72.7,70.9,70.8,168.5-1.9,235.5l-47.9,42.1H6790.5H4927.2L4877.5-823.2z"/><path d="M4883.2-1796c-68.9-68.9-70.8-134.1-5.7-210.6l49.8-59.4h1863.2h1865.2l47.9,44c72.7,65.1,74.6,162.8,1.9,233.6l-46,47.9H6800.1H4938.7L4883.2-1796z"/><path d="M4931.1-2571.5c-113-49.8-130.2-203-32.5-279.6c57.5-44,266.2-53.6,337-15.3c99.6,51.7,120.7,168.5,44.1,256.6c-38.3,46-61.3,53.6-166.6,59.4C5036.4-2546.6,4967.4-2554.3,4931.1-2571.5z"/><path d="M5754.5-2562c-111.1-47.9-134-183.8-47.9-271.9c55.5-53.6,61.3-55.5,258.5-55.5c235.5,0,291.1,17.2,325.6,97.7c32.5,76.6,19.2,137.9-40.2,193.4c-42.1,40.2-67,44-250.8,47.9C5886.6-2546.6,5775.6-2552.4,5754.5-2562z"/><path d="M6727.3-2571.5c-109.1-49.8-130.2-174.2-44-262.4c51.7-51.7,67-55.5,193.4-55.5s141.7,3.8,193.4,55.5c68.9,70.9,72.8,151.3,9.6,224.1c-38.3,46-61.3,53.6-166.6,59.4C6834.5-2546.6,6767.5-2554.3,6727.3-2571.5z"/><path d="M7554.6-2562c-90-38.3-134-180-78.5-252.8c46-59.4,107.3-74.7,300.7-74.7c266.2,0,325.5,32.6,325.5,180c0,42.1-15.3,76.6-49.8,109.2c-44.1,42.1-67,46-252.8,49.8C7686.6-2546.6,7575.6-2552.4,7554.6-2562z"/></g></g>
</svg>
