<?xml version="1.0" encoding="utf-8"?>
<!-- Svg Vector Icons : http://www.onlinewebfonts.com/icon -->
<!DOCTYPE svg PUBLIC "-//W3C//DTD SVG 1.1//EN" "http://www.w3.org/Graphics/SVG/1.1/DTD/svg11.dtd">
<svg version="1.1" xmlns="http://www.w3.org/2000/svg" xmlns:xlink="http://www.w3.org/1999/xlink" x="0px" y="0px" viewBox="0 0 1000 1000" enable-background="new 0 0 1000 1000" xml:space="preserve">
<metadata> Svg Vector Icons : http://www.onlinewebfonts.com/icon </metadata>
<g fill="#fff"><path d="M914.2,167.3c-0.2-0.7-0.4-1.4-0.5-2.1c-1.5-4.8-3-9.4-5-13.9c-14.5-33-44.8-58.5-82.9-65.3l-19.7-3.5L408.2,11.7c-29.4-5.2-59.2,1.3-83.8,18.4c-24.5,17.1-40.9,42.7-46.1,72l353.5,0.1h20.1c38.8,0.1,73,19.9,93,49.9c2.8,4.1,5.2,8.4,7.4,12.8c0.3,0.7,0.7,1.4,0.9,2c4.2,9,7.2,18.5,8.9,28.6c0.2,1,0.4,2,0.4,3c0.8,5,1.3,10.1,1.3,15.3v630.6c0,5.2-0.5,10.2-1.3,15.3c-0.1,1-0.3,2.1-0.4,3.1c-1.6,10-4.7,19.6-8.9,28.6c-0.3,0.6-0.7,1.4-0.9,2.1c-0.3,0.6-0.7,1-0.9,1.6c1.2-1.2,2.7-1.9,3.8-3.1c3.5-3.6,6.6-7.4,9.5-11.4c0.4-0.7,0.9-1.3,1.3-1.9c5.7-8.1,10.4-17,13.7-26.6c0.3-0.9,0.8-1.9,1-3c1.6-4.8,3-9.7,3.9-14.8l131.7-619c0.9-5.2,1.3-10.2,1.4-15.3c0.1-1,0.1-2,0.1-3C918.1,186.8,916.8,176.9,914.2,167.3z"/><path d="M237.9,763.6c-5.4,0-8.4,0.3-10.2,0.6v34.9c2.1,0.3,4.6,0.5,8.1,0.5c14.5,0,23.2-7,23.2-18.9C259.1,769.8,251.4,763.6,237.9,763.6z"/><path d="M346.7,768.2c-0.4,1.4-0.7,2.7-1,4.1c-1,4.7-2.1,9.4-3.2,13.5c-0.1,0.4-5.7,20.2-7.4,26.5h24l-7.8-26.8C349.6,780.1,348.1,773.9,346.7,768.2z"/><path d="M466.3,668.6c36.8-9.9,70.6-30.5,96.4-58.5c-16.5-8.8-34.2-15.1-52.2-19.8C501,618.8,487.7,646.9,466.3,668.6z"/><path d="M515.5,573.2c20.5,5.4,40.5,12.8,59,23c25.7-33.1,40.8-74.3,42.5-116.1c-29.7,0-59.4,0-89,0C527.5,511.4,523.4,542.7,515.5,573.2z"/><path d="M358.7,273.9c-4.7,0.9-9.2,2.5-13.6,4.1c-31.4,10.9-60.1,29.7-82.7,54.2c16.5,8.8,34.2,15.3,52.3,19.8C324.1,323.5,337.3,295.4,358.7,273.9z"/><path d="M309.6,369c-20.5-5.4-40.5-12.8-59.1-22.9c-25.6,33.1-40.7,74.3-42.4,116.1c29.7,0,59.3,0,88.9,0C297.7,430.9,301.6,399.5,309.6,369z"/><path d="M728.4,229.3c-1.6-10.1-4.7-19.6-8.9-28.6c-0.3-0.7-0.7-1.3-0.9-2c-2.2-4.4-4.6-8.7-7.4-12.8c-20-30-54.3-49.8-93-49.9h-20.1l-353.5-0.1h-50.4c-29.9,0-58,11.6-79.3,32.7c-21.2,21.1-32.9,49.2-32.8,79v630.5C82,908,93.7,936,114.8,957.2c21.2,21.2,49.4,32.8,79.3,32.8l404-0.1h20.1c38.7-0.1,72.9-19.9,92.9-49.9c2.5-3.6,4.5-7.4,6.5-11.2c0.3-0.5,0.7-1,0.9-1.6c0.3-0.7,0.7-1.4,0.9-2.1c4.2-9,7.2-18.5,8.9-28.6c0.2-1,0.4-2,0.4-3.1c0.8-5,1.3-10,1.3-15.2V247.6c0-5.2-0.5,1-1.3-4.1C728.8,242.5,728.6,230.3,728.4,229.3z M236.1,824.5c-3.5,0-6.1-0.1-8.3-0.4v45.1h-31.4V741.7l1.3-0.2c10.4-1.8,23.5-2.6,39-2.6c17.8,0,30.8,3.3,39.7,10.5c8.9,6.9,14,18,14,30.4c0,13-4.3,24-12.1,31.1C268.5,819.8,254,824.5,236.1,824.5z M373.9,869.1l-9.8-32.5h-34l-9,32.5h-32.7l39.4-129.4h39.8l40.4,129.4H373.9z M460.3,871c-15.2,0-29.7-4.2-36.6-8.1l-0.9-0.5l6.4-26.4l1.7,0.9c7.2,3.7,19.1,7.7,31.2,7.7c11.8,0,18.6-4.5,18.6-12.2c0-6.9-5.3-11-20.2-16.2c-23.9-8.4-36-21.5-36-38.9c0-23.2,20.4-39.3,49.5-39.3c12.7,0,23.8,2.2,33,6.5l1.1,0.5l-7.2,25.9l-1.6-0.9c-4.3-2.1-13.4-5.8-25.6-5.8c-11.7,0-17,5.4-17,10.7c0,6.9,5.6,10.1,22.5,16.3c23.3,8.7,33.7,20.7,33.7,39.2C512.8,849.1,499,871,460.3,871z M563.3,871c-15.2,0-29.6-4.2-36.7-8.1l-1-0.5l6.6-26.4l1.7,0.9c7.1,3.7,19,7.7,31.1,7.7c11.7,0,18.7-4.5,18.7-12.2c0-6.9-5.4-11-20.3-16.2c-23.9-8.4-36-21.5-36-38.9c0-23.2,20.4-39.3,49.5-39.3c12.7,0,23.8,2.2,33,6.5l1.2,0.5l-7.2,25.9l-1.6-0.9c-4.3-2.1-13.4-5.8-25.6-5.8c-11.7,0-17,5.4-17,10.7c0,6.9,5.7,10.1,22.6,16.3c23.3,8.7,33.7,20.7,33.7,39.2C615.7,849.1,602,871,563.3,871z M635,475.1c-0.7,33.1-8.6,66.2-23.6,95.7c-14.5,29.2-35.7,55-61.3,75.2c-26.2,20.7-57.2,35.3-89.7,42.4c-13.3,3.1-26.8,4.4-40.3,5.2h-14.8c-17.8-0.9-35.5-3.3-52.6-8.1c-41.4-11.6-79.2-35.4-107.5-67.8c-19.8-22.6-35-49.4-44.3-78c-6.7-20.8-10.2-42.7-10.8-64.5v-8c0.8-40.5,12.8-81,34.6-115.1c23.3-36.6,57.3-66.2,96.9-83.9c26.2-11.8,54.8-18.2,83.6-19.4h14.6c25.7,1.2,51.2,6.1,75.1,15.8c49.8,19.7,91.7,58.1,115.9,105.8c15.4,29.9,23.5,63.3,24.2,96.8L635,475.1L635,475.1z"/><path d="M297,480c-29.6,0-59.2,0-88.9,0c1.6,41.9,16.8,83,42.4,116.1c18.7-10.2,38.7-17.5,59.1-23C301.6,542.7,297.7,511.4,297,480z"/><path d="M460.4,580.7c-12.9-1.2-25.9-2.5-38.9-2.5c0,32.3,0,64.5,0,96.8c16.9-3.6,30.5-15.5,40.9-28.8c14.2-17.7,23.4-38.8,30.9-60.1C482.4,583.5,471.4,582.3,460.4,580.7z"/><path d="M515.5,369c8,30.5,12,61.8,12.6,93.2c29.6,0,59.3,0,88.9,0c-1.8-41.9-16.8-83.1-42.5-116.1C556,356.3,535.9,363.6,515.5,369z"/><path d="M370.4,655c9.1,9.4,20.4,17.2,33.3,20c0-32.4,0-64.6,0-96.8c-24.1,0.5-48.2,3-71.8,8C340.6,611.1,351.9,635.8,370.4,655z"/><path d="M493.2,356c-8.8-24.8-20-49.5-38.5-68.7c-9.1-9.5-20.4-17.2-33.3-20c0,32.4,0,64.6,0,96.9c18-0.4,36-1.8,53.8-4.8C481.3,358.7,487.3,357.5,493.2,356z"/><path d="M362.7,296.1c-14.1,17.7-23.3,38.7-30.8,59.9c10.5,2.7,21.3,3.8,32,5.4c13.2,1.3,26.5,2.5,39.8,2.7c0-32.3,0-64.5,0-96.9C386.7,270.9,373.1,282.9,362.7,296.1z"/><path d="M510.5,352c18-4.7,35.7-11.2,52.3-19.8c-25.8-28-59.6-48.7-96.4-58.4c4.4,4,8,8.9,11.9,13.5C492.8,306.8,503,329.1,510.5,352z"/><path d="M498.2,373.2c-25.1,5.6-51,8.2-76.7,8.7c0,26.7,0,53.5,0,80.3c29.6-0.1,59.2,0.1,88.8-0.1C509.7,432.2,505.8,402.3,498.2,373.2z"/><path d="M510.1,480c-29.6,0.1-59.1,0.1-88.7,0.1v80.3c25.8,0.4,51.6,3.2,76.8,8.7C505.8,539.9,509.8,510,510.1,480z"/><path d="M262.3,610c25.8,28,59.6,48.7,96.4,58.4c-21.3-21.6-34.7-49.7-44.1-78.2C296.5,594.8,278.9,601.5,262.3,610z"/><path d="M314.9,462.2c29.6,0.1,59.1,0.1,88.8,0.1v-80.3c-25.8-0.4-51.6-3.1-76.8-8.7C319.3,402.3,315.4,432.2,314.9,462.2z"/><path d="M326.9,569.1c25.1-5.7,51-8.3,76.7-8.8c0-26.7,0-53.5,0-80.3c-29.6,0-59.1-0.1-88.8,0.1C315.4,510.1,319.3,540.1,326.9,569.1z"/></g>
</svg>
